#!OML:ASF F:\VICON\USERDATA\INSTALL\rory3\rory3.ASF
:FULLY-SPECIFIED
:DEGREES
17
root 0.466159 18.4018 -14.5736 2.86807 -3.16089 1.50653
lowerback 12.8442 -4.29231 -4.23957
upperback -1.0728 -6.29101 1.04696
thorax -7.76212 -2.8546 4.6827
lowerneck -2.96145 3.81546 0.525486
upperneck -2.18468 5.04081 -3.19302
head -0.0810589 2.514 -1.01662
rclavicle -1.43746e-014 -1.53064e-014
rhumerus -64.5755 8.78123 -83.6991
rradius 92.4726
rwrist -5.3743
rhand -35.7727 35.8272
rfingers 7.12502
rthumb -8.89045 6.03448
lclavicle -1.43746e-014 -1.53064e-014
lhumerus -17.5412 -17.6999 88.6469
lradius 118.64
lwrist 35.4743
lhand -29.9424 8.85707
lfingers 7.12502
lthumb -3.26187 38.8119
rfemur -43.3934 2.95958 18.8091
rtibia 60.6894
rfoot -1.73237 -3.92558
rtoes -8.36386
lfemur 25.4001 -1.89687 -26.4714
ltibia 8.3587
lfoot 33.9354 5.73667
ltoes -8.11658
18
root 0.467527 18.4756 -14.0337 3.3073 -3.48911 1.35674
lowerback 13.1266 -4.24642 -3.86559
upperback -1.76914 -6.18818 1.21552
thorax -8.71036 -2.76556 4.71225
lowerneck -2.64321 3.8101 0.761763
upperneck -2.02535 5.02961 -3.43865
head -0.0718052 2.50796 -1.1371
rclavicle 8.67571e-014 -1.08338e-014
rhumerus -65.928 8.21258 -83.0515
rradius 92.9199
rwrist -5.35128
rhand -35.353 35.7762
rfingers 7.12502
rthumb -8.48542 5.96664
lclavicle 8.67571e-014 -1.08338e-014
lhumerus -18.7285 -19.2838 89.5031
lradius 119.11
lwrist 35.1529
lhand -31.3145 8.75739
lfingers 7.12502
lthumb -4.58683 38.6877
rfemur -42.9998 3.60678 18.8126
rtibia 55.4485
rfoot -0.543184 -4.87881
rtoes -9.7685
lfemur 28.0709 -2.55015 -26.5184
ltibia 4.21758
lfoot 36.2227 7.05232
ltoes -11.7168
19
root 0.473836 18.5256 -13.4901 3.67587 -3.61638 1.57531
lowerback 13.2218 -4.2601 -3.70118
upperback -2.35412 -6.20133 1.19924
thorax -9.42467 -2.74132 4.6559
lowerneck -2.44912 3.85379 1.04867
upperneck -1.76265 5.08807 -3.56537
head -0.0108734 2.53486 -1.22495
rclavicle -3.516e-014 1.47101e-014
rhumerus -67.1106 7.58974 -82.4632
rradius 93.3504
rwrist -5.53951
rhand -34.6969 36.664
rfingers 7.12502
rthumb -7.85223 6.8298
lclavicle -3.516e-014 1.47101e-014
lhumerus -19.9726 -20.7619 90.2758
lradius 119.413
lwrist 34.4638
lhand -31.9802 7.80497
lfingers 7.12502
lthumb -5.22963 37.7204
rfemur -42.4768 3.93066 18.3593
rtibia 50.3185
rfoot 0.58998 -5.68402
rtoes -9.26191
lfemur 31.0512 -3.38619 -27.0064
ltibia 2.8625e-014
lfoot 39.5267 7.98311
ltoes -6.60292
20
root 0.481036 18.5989 -12.9379 3.86766 -3.53625 1.70471
lowerback 13.4374 -4.32697 -3.36634
upperback -2.87885 -6.25797 1.18392
thorax -10.1621 -2.74872 4.52379
lowerneck -2.00074 3.86679 1.21307
upperneck -1.71648 5.10482 -3.6128
head -0.0647148 2.54622 -1.27657
rclavicle 3.70858e-014 7.7526e-015
rhumerus -68.2149 7.04442 -81.9673
rradius 93.762
rwrist -5.72056
rhand -34.3116 37.0256
rfingers 7.12502
rthumb -7.48031 7.17785
lclavicle 3.70858e-014 7.7526e-015
lhumerus -21.1715 -21.7746 90.9841
lradius 119.36
lwrist 33.0363
lhand -31.8349 8.14827
lfingers 7.12502
lthumb -5.08929 38.0672
rfemur -41.492 4.42454 17.9054
rtibia 45.1521
rfoot 1.02348 -7.19207
rtoes -5.92707
lfemur 30.4767 -4.23361 -27.8065
ltibia 3.27715
lfoot 37.7173 7.77984
ltoes -4.77964
21
root 0.48591 18.6294 -12.4031 3.86808 -3.63504 1.92866
lowerback 14.1088 -4.32258 -3.17792
upperback -3.33529 -6.26134 1.1091
thorax -11.095 -2.71594 4.4408
lowerneck -1.87634 3.91549 1.296
upperneck -1.73203 5.16926 -3.5125
head -0.0890999 2.57921 -1.26161
rclavicle 3.73839e-014 1.25234e-014
rhumerus -69.0301 6.44544 -81.5878
rradius 94.1452
rwrist -5.70537
rhand -34.7326 36.0451
rfingers 7.12502
rthumb -7.88664 6.21222
lclavicle 3.73839e-014 1.25234e-014
lhumerus -22.1907 -22.6465 91.4848
lradius 119.315
lwrist 32.26
lhand -31.8151 8.17593
lfingers 7.12502
lthumb -5.07025 38.0953
rfemur -40.3701 4.9722 17.3869
rtibia 40.2345
rfoot 1.79242 -7.78695
rtoes -7.17504
lfemur 29.5063 -4.87557 -28.7761
ltibia 7.46241
lfoot 34.4485 7.27824
ltoes -8.15229
22
root 0.484465 18.6482 -11.8797 3.81656 -3.93745 2.2353
lowerback 15.1834 -4.21764 -3.12661
upperback -3.85775 -6.18011 0.949266
thorax -12.358 -2.62041 4.36647
lowerneck -1.98057 3.9028 1.46108
upperneck -1.61953 5.15257 -3.35934
head -0.0377313 2.56818 -1.23786
rclavicle -5.9536e-014 1.68967e-014
rhumerus -69.8133 5.8536 -81.334
rradius 94.5058
rwrist -5.63002
rhand -35.3387 35.1043
rfingers 7.12502
rthumb -8.47167 5.29418
lclavicle -5.9536e-014 1.68967e-014
lhumerus -23.6087 -23.5026 92.098
lradius 119.295
lwrist 31.67
lhand -30.2431 3.28624
lfingers 7.12502
lthumb -3.55222 33.2364
rfemur -39.0322 5.86725 16.7636
rtibia 35.5187
rfoot 1.99211 -8.32301
rtoes -8.39066
lfemur 28.4692 -5.35638 -29.7656
ltibia 11.6536
lfoot 32.1839 7.4941
ltoes -6.4289
